<svg version="1.1" id="Layer_1" xmlns="http://www.w3.org/2000/svg" xmlns:xlink="http://www.w3.org/1999/xlink" x="0px" y="0px"
	 width="100%" viewBox="0 0 592 592" enable-background="new 0 0 592 592" xml:space="preserve">
<path fill="#000000" opacity="1.000000" stroke="none" 
	d="
M278.035095,225.000000 
	C278.037537,216.667694 277.838593,208.829086 278.084839,201.004517 
	C278.471344,188.723129 284.427124,180.998978 294.913757,178.628647 
	C307.644409,175.751114 319.593689,184.874054 320.318970,197.996002 
	C320.520599,201.643600 319.303558,205.640640 320.954987,208.862946 
	C323.010803,212.874176 327.788818,209.708481 330.971039,211.379852 
	C336.672028,214.374115 341.994415,214.025482 348.250916,211.821823 
	C358.102661,208.351868 367.626984,213.190186 372.282166,222.764938 
	C373.760620,225.805893 375.470825,226.759308 378.764435,226.726929 
	C393.818604,226.578857 402.285675,236.508591 400.655884,251.478088 
	C399.683685,260.407532 400.093689,269.432373 399.540344,278.419769 
	C398.395264,297.018341 397.900513,315.660614 397.347839,334.291107 
	C396.675385,356.960510 379.177551,374.289825 356.644379,374.331268 
	C344.145813,374.354279 331.647095,374.384399 319.148651,374.342438 
	C298.863403,374.274353 282.332031,359.807953 279.702118,339.742676 
	C279.303375,336.700439 277.593414,334.580231 275.818695,332.375854 
	C264.011841,317.710510 252.128586,303.105591 240.442276,288.344757 
	C233.691406,279.817810 234.213577,267.640991 241.287613,260.330017 
	C248.899155,252.463531 261.014374,251.628418 270.031067,258.105530 
	C272.703186,260.025055 273.727478,263.604767 278.033356,265.352020 
	C278.033356,251.629288 278.033356,238.564636 278.035095,225.000000 
M317.099548,241.516815 
	C317.094147,247.515686 316.975677,253.517380 317.125244,259.512390 
	C317.216705,263.177948 316.569611,265.657074 312.074677,265.591339 
	C307.434540,265.523499 308.784698,262.166687 308.771240,259.865234 
	C308.660278,240.869308 308.701141,221.872528 308.677887,202.876022 
	C308.667450,194.339020 305.308472,189.678589 299.176788,189.614090 
	C293.165741,189.550873 289.985931,194.234070 289.988708,203.051758 
	C289.998016,232.879364 290.006256,262.707001 289.954285,292.534515 
	C289.951019,294.405243 290.721558,296.555756 288.846222,298.112213 
	C286.893555,297.787659 286.212646,296.119720 285.193878,294.868958 
	C278.460419,286.602112 271.789032,278.284424 265.022400,270.044952 
	C259.598083,263.440033 251.830750,263.853363 248.276138,270.866943 
	C246.153015,275.056061 247.673721,278.537048 250.372833,281.866913 
	C262.540771,296.878387 274.655396,311.933044 286.819855,326.947357 
	C288.857300,329.462128 289.996796,332.129761 290.475677,335.457336 
	C292.866669,352.072052 304.909180,363.606689 322.192017,363.037750 
	C333.344421,362.670563 344.519318,363.034210 355.683472,362.964844 
	C370.400055,362.873383 381.657288,354.171814 384.831818,339.834076 
	C386.703674,331.380096 386.130341,322.617737 386.625946,313.995697 
	C387.437408,299.878815 387.947449,285.744629 388.586761,271.617859 
	C388.940216,263.808258 389.518250,256.000641 389.581177,248.188812 
	C389.627686,242.413757 385.154938,238.148819 379.892181,238.222855 
	C374.645081,238.296661 371.296326,242.108704 371.160919,248.224319 
	C371.090851,251.389313 371.004059,254.558609 371.093140,257.721222 
	C371.187531,261.074280 369.266083,261.981079 366.384399,262.138885 
	C362.952148,262.326813 362.694763,260.140259 362.699249,257.592041 
	C362.713257,249.593567 362.755829,241.594315 362.665558,233.596756 
	C362.591034,226.993530 358.465851,222.414124 352.951202,222.583893 
	C347.461121,222.752914 344.125519,226.872009 344.081665,233.692932 
	C344.027008,242.190735 343.974304,250.689987 344.078583,259.186676 
	C344.122406,262.760468 342.180481,263.805237 339.103699,263.927490 
	C335.470612,264.071808 335.737122,261.480042 335.728333,259.138824 
	C335.694580,250.140579 335.788696,241.140839 335.653870,232.144394 
	C335.575897,226.939346 331.430359,222.682068 326.668671,222.514038 
	C321.667908,222.337570 317.380646,226.563599 317.147736,232.028625 
	C317.027191,234.856567 317.108978,237.693115 317.099548,241.516815 
z"/>
<path fill="#000000" opacity="1.000000" stroke="none" 
	d="
M405.723938,82.663116 
	C384.931030,88.255203 372.378265,102.972755 370.327789,123.962898 
	C370.009674,127.219292 368.504395,129.543915 365.969788,131.440659 
	C357.234436,137.977615 347.468597,141.895096 336.627625,143.115433 
	C331.036774,143.744781 326.103333,142.781128 321.007355,139.685867 
	C306.504883,130.877075 290.932739,130.076050 276.423828,138.795609 
	C267.673035,144.054688 259.565948,143.611359 250.675049,141.601532 
	C245.761993,140.490891 241.254349,138.377640 236.771606,136.134262 
	C229.840744,132.665680 225.703079,127.942291 224.524551,119.573883 
	C221.355240,97.069435 201.070541,79.178909 172.381744,81.337593 
	C169.165115,81.579628 168.509689,84.069321 167.174484,86.072815 
	C162.864166,92.540550 154.976349,95.696312 147.562729,93.907196 
	C140.117798,92.110512 134.445755,86.097923 133.702698,79.215027 
	C132.692917,69.861549 136.157303,62.820793 143.565933,59.169758 
	C151.509781,55.254963 161.986633,57.594654 166.662659,65.157822 
	C169.179169,69.228096 172.045654,70.194954 176.424500,70.128502 
	C196.418549,69.825096 213.209930,76.670105 225.582352,92.933472 
	C231.467239,100.669067 234.838593,109.454956 236.188461,118.991806 
	C236.533356,121.428352 237.571426,122.934303 239.467896,124.198555 
	C245.687378,128.344635 252.577133,130.625366 259.926300,131.638428 
	C263.197968,132.089432 265.995392,131.054993 268.889099,129.422577 
	C287.632599,118.849037 306.678894,118.771439 325.552460,128.883484 
	C330.140839,131.341827 334.307220,132.197601 339.309235,130.990005 
	C342.396851,130.244583 345.416412,129.420639 348.357300,128.263382 
	C354.642120,125.790237 358.644928,122.301682 360.325043,114.729591 
	C365.533630,91.255074 380.636566,76.702248 404.122681,71.413528 
	C409.729370,70.151001 415.689819,70.307854 421.496735,70.149231 
	C424.450806,70.068558 426.309235,69.247322 427.940216,66.577713 
	C432.790070,58.639309 440.988312,55.646755 449.483459,58.253540 
	C457.183228,60.616268 462.341370,67.800728 462.243347,76.026024 
	C462.141022,84.611382 456.898895,91.441666 448.701080,93.671005 
	C440.397095,95.929207 432.440582,92.753944 427.870331,84.869858 
	C426.290558,82.144646 424.484985,81.273445 421.499786,81.281357 
	C416.325958,81.295074 411.191010,81.408203 405.723938,82.663116 
M147.994598,81.655907 
	C152.809204,83.368027 156.502151,82.389694 158.081711,78.685989 
	C159.681381,74.935143 158.384064,71.958611 155.026031,69.783798 
	C151.481323,67.488106 148.640396,69.028107 146.310867,71.671959 
	C143.285507,75.105530 144.411362,78.333511 147.994598,81.655907 
M437.569183,72.994286 
	C435.826843,76.602524 437.019348,79.510948 440.054260,81.593361 
	C442.771118,83.457550 445.687103,83.277908 448.289062,81.095856 
	C451.294769,78.575264 451.671356,74.204407 449.179565,71.377853 
	C445.771301,67.511719 442.291199,67.821358 437.569183,72.994286 
z"/>
<path fill="#000000" opacity="1.000000" stroke="none" 
	d="
M159.456177,173.964035 
	C162.273178,165.460587 167.892380,160.510925 176.354843,160.070877 
	C184.061249,159.670135 190.261826,163.231781 193.826004,170.340103 
	C195.116394,172.913605 197.113312,172.727890 199.266998,172.728500 
	C214.594559,172.732895 229.922104,172.728424 245.249664,172.741745 
	C252.223450,172.747803 252.212555,172.763382 252.299194,179.555527 
	C252.446014,191.064224 256.720062,200.956482 264.335083,209.417282 
	C269.762573,215.447586 270.497040,217.819153 268.649872,226.496445 
	C258.116516,224.304977 248.808395,227.611588 239.930191,232.914948 
	C237.624695,234.292130 236.544571,236.040161 236.187027,238.869278 
	C232.796875,265.695648 208.612930,287.014954 181.535202,287.264740 
	C180.035889,287.278564 178.519730,287.413544 177.040009,287.243378 
	C172.376404,286.706970 169.129318,287.899719 166.451569,292.405182 
	C162.370911,299.271088 153.534912,301.665771 145.739761,299.113464 
	C137.794708,296.512115 133.456619,289.652802 133.657364,280.009003 
	C133.821991,272.099060 139.056351,265.660095 147.108612,263.462219 
	C154.618439,261.412384 163.211411,264.407257 167.038452,271.255432 
	C169.102921,274.949707 171.580704,275.705383 175.416351,275.801239 
	C195.585571,276.305298 210.865448,268.357788 220.647232,250.446289 
	C223.492218,245.236832 224.928558,239.533936 225.417130,233.760544 
	C225.755569,229.761246 227.567551,227.328674 230.496887,225.167999 
	C235.641571,221.373291 241.277405,218.589813 247.336502,216.582352 
	C249.010895,216.027588 250.991730,215.937180 252.374039,213.817368 
	C248.116318,206.909760 244.043472,199.712875 242.323776,191.431564 
	C240.838348,184.278427 240.655319,184.315186 233.061050,184.317154 
	C221.898590,184.320053 210.735855,184.368408 199.573868,184.297638 
	C196.869675,184.280487 195.083206,184.898895 193.563583,187.551010 
	C188.673096,196.086227 179.663467,199.308395 170.920227,196.114243 
	C162.289276,192.961121 157.612778,184.185944 159.456177,173.964035 
M183.985779,176.458282 
	C182.255737,173.096024 179.795288,170.729416 175.752441,171.903320 
	C172.023773,172.985992 169.949951,175.648071 170.476379,179.723709 
	C170.928146,183.221481 174.552856,185.994751 177.885056,185.594131 
	C181.738358,185.130844 184.177277,181.883759 183.985779,176.458282 
M144.552414,282.208405 
	C145.048660,283.255859 145.400009,284.408600 146.069550,285.330139 
	C147.761581,287.659027 150.148911,288.931427 152.986893,288.214661 
	C155.858276,287.489410 158.074936,285.704193 158.601837,282.524323 
	C159.132553,279.321533 157.639465,277.076233 154.992508,275.475494 
	C150.667816,272.860138 146.760757,275.106995 144.552414,282.208405 
z"/>
<path fill="#000000" opacity="1.000000" stroke="none" 
	d="
M55.724747,469.641693 
	C53.476933,473.379883 51.498558,476.856079 49.352558,480.225494 
	C46.602654,484.543182 43.229088,484.673004 40.496048,480.361908 
	C35.694729,472.788483 31.138159,465.059906 26.187302,456.916290 
	C24.950172,459.038910 25.390310,460.841919 25.373682,462.509674 
	C25.303936,469.504974 25.350077,476.501312 25.321863,483.497162 
	C25.300119,488.888641 21.668633,491.162354 16.540627,489.148743 
	C14.680554,488.418365 14.730577,486.930756 14.728121,485.466431 
	C14.701854,469.809052 14.702564,454.151581 14.724850,438.494171 
	C14.727233,436.819427 14.736688,434.910980 17.062214,434.787384 
	C20.290045,434.615845 23.648046,433.704926 25.862041,437.537994 
	C30.942314,446.333527 36.258076,454.993286 41.505993,463.691437 
	C42.438755,465.237427 43.125069,466.993347 45.082264,468.219879 
	C47.353161,466.519653 48.289417,463.792175 49.693611,461.452698 
	C54.149582,454.028809 58.749126,446.676270 62.831760,439.049164 
	C64.942688,435.105560 67.832520,434.250000 71.812347,434.534363 
	C74.061913,434.695099 75.191528,435.450378 75.188469,437.795929 
	C75.167580,453.786285 75.176880,469.776672 75.188431,485.767059 
	C75.191475,489.983948 72.103058,489.259399 69.518326,489.361328 
	C66.811722,489.468048 64.590477,489.260345 64.642937,485.532745 
	C64.778214,475.920746 64.688232,466.305603 63.679436,456.348999 
	C61.092861,460.676758 58.506287,465.004517 55.724747,469.641693 
z"/>
<path fill="#000000" opacity="1.000000" stroke="none" 
	d="
M404.313446,166.356430 
	C414.359528,157.009827 428.259918,158.601303 434.328674,169.485550 
	C439.152832,178.137650 436.252899,189.508972 427.932953,194.564758 
	C419.183228,199.881683 407.897827,197.330963 402.669098,188.432846 
	C400.772461,185.205215 398.590179,184.201218 395.048462,184.253677 
	C383.219177,184.428970 371.384308,184.443985 359.555176,184.272675 
	C356.099579,184.222626 354.241547,185.258438 353.810913,188.790482 
	C353.571228,190.756165 352.673340,192.650955 352.507019,194.614548 
	C351.883850,201.970810 346.130615,203.230927 340.653687,204.450546 
	C337.681091,205.112503 335.994965,203.531143 337.740173,200.382721 
	C341.638275,193.350525 343.415253,185.844681 343.083740,177.838364 
	C342.924347,173.989456 344.623322,172.640701 348.488068,172.683868 
	C363.150879,172.847672 377.822876,172.499268 392.478271,172.866547 
	C397.918823,173.002914 401.852936,171.788345 404.313446,166.356430 
M422.328522,173.159851 
	C416.883331,170.666534 412.009155,172.653824 411.381287,177.673859 
	C410.932129,181.265213 412.597137,183.773483 415.812317,185.136246 
	C419.004395,186.489212 421.652588,185.168121 423.720825,182.751251 
	C426.502777,179.500443 425.750732,176.411118 422.328522,173.159851 
z"/>
<path fill="#000000" opacity="1.000000" stroke="none" 
	d="
M183.967529,489.348267 
	C176.815659,489.349884 170.156357,489.253265 163.502090,489.394470 
	C160.319702,489.462006 158.962311,488.243103 158.973648,485.041565 
	C159.027893,469.730225 159.030869,454.418396 158.961060,439.107147 
	C158.945297,435.646271 160.470337,434.464905 163.829742,434.537689 
	C171.315674,434.699890 178.807220,434.612823 186.296478,434.610046 
	C193.197937,434.607513 199.926971,435.573120 203.673615,442.159332 
	C207.408035,448.724060 205.392548,454.976501 200.602570,460.710175 
	C204.012146,463.454071 206.931274,466.250671 207.945419,470.582153 
	C210.222122,480.306183 203.901398,488.075653 192.445435,489.209778 
	C189.805664,489.471100 187.124344,489.312897 183.967529,489.348267 
M194.293411,468.129822 
	C187.367264,464.622650 179.971252,466.717468 172.783981,466.364716 
	C171.195526,466.286713 170.418106,467.439026 170.395172,468.963776 
	C170.350327,471.946045 170.350449,474.929718 170.384567,477.912201 
	C170.401886,479.426086 171.116760,480.562531 172.732788,480.546173 
	C178.838577,480.484497 185.005157,481.463440 191.029068,479.827118 
	C197.152359,478.163727 198.499039,474.134003 194.293411,468.129822 
M170.330948,449.572083 
	C170.360458,456.894012 170.360443,456.907166 177.692703,456.913696 
	C180.516281,456.916199 183.342834,456.911621 186.162827,456.789520 
	C190.370193,456.607452 193.782181,455.002167 194.436249,450.450928 
	C194.922867,447.065002 190.928055,443.779572 186.124252,443.438690 
	C182.651321,443.192261 179.132965,443.559235 175.664703,443.280853 
	C171.522980,442.948303 169.760696,444.558899 170.330948,449.572083 
z"/>
<path fill="#000000" opacity="1.000000" stroke="none" 
	d="
M113.350494,433.732391 
	C117.450310,433.786224 121.058281,433.642883 124.718201,434.436646 
	C138.094757,437.337616 147.498367,448.190033 147.018173,462.965729 
	C146.526016,478.108887 135.432571,489.170898 120.284904,490.209167 
	C108.750900,490.999756 98.720711,487.598511 92.214905,477.454803 
	C86.029274,467.810303 86.022362,457.655548 91.465408,447.603058 
	C96.056717,439.123535 103.821854,435.384766 113.350494,433.732391 
M113.512207,479.921600 
	C118.321320,481.385834 122.764961,480.065033 126.868713,477.736053 
	C134.395752,473.464264 137.594284,464.084351 134.670120,455.656799 
	C131.951584,447.821808 123.535355,442.443695 115.552940,443.440613 
	C106.434601,444.579437 99.887207,451.028656 99.222359,459.526337 
	C98.386375,470.211456 102.833336,476.869019 113.512207,479.921600 
z"/>
<path fill="#000000" opacity="1.000000" stroke="none" 
	d="
M472.124756,436.494446 
	C487.272522,444.072052 487.833405,458.258240 473.483521,472.205811 
	C476.990479,477.403107 480.562164,482.696320 484.215485,488.110504 
	C476.554565,490.855896 473.183624,489.888458 469.303864,484.247101 
	C468.360046,482.874664 467.172272,481.605591 466.525482,480.104248 
	C463.432098,472.923950 457.310852,473.735870 451.301727,474.125702 
	C449.218903,474.260834 448.392548,475.449585 448.389404,477.408875 
	C448.386475,479.241272 448.365570,481.073639 448.354553,482.906036 
	C448.316284,489.270813 446.990234,490.319397 440.591248,489.345490 
	C438.852570,489.080841 437.744568,488.463013 437.743378,486.605286 
	C437.732483,469.486786 437.736969,452.368286 437.736969,434.595642 
	C449.420288,434.985748 460.675110,433.019226 472.124756,436.494446 
M448.367462,456.379211 
	C448.366180,464.739410 448.368225,464.814972 456.815491,464.585724 
	C459.616882,464.509644 462.428986,464.065247 465.191315,463.549042 
	C467.545258,463.109100 469.470215,461.768463 470.855682,459.770782 
	C474.355103,454.725037 472.686768,447.852539 467.040131,445.504364 
	C461.515564,443.206970 455.229492,443.006104 449.994598,444.928406 
	C446.312286,446.280579 449.020996,451.826996 448.367462,456.379211 
z"/>
<path fill="#000000" opacity="1.000000" stroke="none" 
	d="
M325.948639,466.300659 
	C321.457001,466.298126 317.452118,466.426483 313.460419,466.252502 
	C310.167297,466.108978 308.893738,467.563354 309.090942,470.700226 
	C309.163940,471.861755 309.210266,473.046173 309.070862,474.196136 
	C308.536469,478.604431 310.467896,480.085510 314.806763,479.900818 
	C321.460022,479.617645 328.135986,479.917664 334.798676,479.786621 
	C338.287354,479.717987 339.425110,481.219849 339.402313,484.597107 
	C339.380188,487.872467 338.517273,489.463501 334.888916,489.411011 
	C323.893494,489.251953 312.893982,489.300049 301.896881,489.382324 
	C298.957458,489.404297 297.671112,488.312683 297.682495,485.298798 
	C297.741760,469.635712 297.738617,453.972107 297.671051,438.309052 
	C297.658630,435.434082 299.035675,434.712524 301.643402,434.530212 
	C312.300323,433.785187 322.963104,434.266022 333.621490,434.128174 
	C337.306702,434.080536 338.411896,435.758575 338.418243,439.333771 
	C338.425110,443.186523 336.751831,444.235596 333.273956,444.157990 
	C326.778290,444.012970 320.271423,444.266296 313.780884,444.031250 
	C308.390778,443.836060 309.176910,447.455872 309.079681,450.760559 
	C308.978638,454.195068 309.051758,457.076447 313.928680,456.783020 
	C319.407776,456.453308 324.924347,456.804230 330.419800,456.666534 
	C333.713135,456.584015 335.304138,457.642151 335.288025,461.225098 
	C335.272247,464.725464 334.266174,466.671356 330.438538,466.319275 
	C329.116669,466.197723 327.774170,466.300446 325.948639,466.300659 
z"/>
<path fill="#000000" opacity="1.000000" stroke="none" 
	d="
M265.044312,194.665131 
	C254.277939,170.017410 269.059540,144.317612 295.618744,142.123550 
	C308.900543,141.026352 320.118927,146.642303 327.715576,157.889664 
	C335.109650,168.837067 336.385925,180.685242 331.194458,193.014526 
	C330.965210,193.558990 330.379761,193.953476 329.138611,195.327301 
	C328.253784,187.239136 323.017792,181.864761 322.307739,174.184250 
	C321.196564,162.165176 307.736359,152.270782 296.146484,153.467987 
	C282.566193,154.870789 271.827118,166.333221 272.971649,179.463120 
	C273.462799,185.097198 269.994141,189.222260 269.666412,194.348709 
	C269.570282,195.852295 269.918182,197.709732 268.507751,199.070084 
	C266.345428,198.550491 266.214142,196.413605 265.044312,194.665131 
z"/>
<path fill="#000000" opacity="1.000000" stroke="none" 
	d="
M370.921387,483.971741 
	C377.851654,468.616394 384.828094,453.690948 391.267761,438.537415 
	C393.180328,434.036743 396.435181,434.835358 399.783905,434.432220 
	C402.997894,434.045319 404.598145,435.454895 405.849884,438.266663 
	C412.682343,453.614075 419.660645,468.896484 426.574188,484.207855 
	C427.181122,485.552002 427.954376,486.881317 427.596008,488.457520 
	C419.503448,490.942230 417.212250,490.163483 414.262604,482.714996 
	C412.584412,478.477173 410.164520,476.819183 405.630310,477.139923 
	C400.496674,477.503021 395.308807,477.403778 390.161072,477.158295 
	C386.599365,476.988434 384.774597,478.409180 383.439301,481.653412 
	C379.847961,490.378998 379.666870,490.355377 370.008667,488.863190 
	C368.845123,487.140503 370.314850,485.802216 370.921387,483.971741 
M400.371368,450.584778 
	C399.796387,449.825287 399.677765,448.665771 398.130676,448.358521 
	C394.965790,454.363953 392.341827,460.660797 389.968994,467.366791 
	C396.019409,467.366791 401.373138,467.366791 407.055450,467.366791 
	C405.668213,461.275299 402.657532,456.427155 400.371368,450.584778 
z"/>
<path fill="#000000" opacity="1.000000" stroke="none" 
	d="
M577.165344,487.492249 
	C566.492493,491.973724 556.317322,490.948608 546.331848,486.584198 
	C541.776184,484.592987 541.195801,480.194733 544.655457,476.615845 
	C546.391418,474.820129 547.766602,476.257599 549.076965,476.985535 
	C554.328247,479.902557 559.903992,481.061646 565.880310,480.715088 
	C567.940552,480.595642 569.824707,480.138428 571.562073,479.093018 
	C575.899109,476.483307 575.973877,471.998016 571.382996,469.792786 
	C567.981812,468.159058 564.133728,467.465973 560.503357,466.295929 
	C557.188293,465.227509 553.710083,464.454010 550.631958,462.900391 
	C540.668701,457.871826 539.901428,443.733856 549.412598,437.814880 
	C559.644775,431.447144 570.398621,432.667328 580.996460,437.089203 
	C584.835632,438.691040 582.638550,441.446594 581.797119,443.833282 
	C580.926636,446.302185 579.488464,447.399597 576.884460,445.961243 
	C572.025208,443.277191 566.743896,442.832581 561.370544,443.385925 
	C557.833679,443.750122 554.810059,445.240540 554.332581,449.228394 
	C553.874634,453.054077 556.860107,454.462036 559.730835,455.405029 
	C564.461060,456.958801 569.321777,458.110474 574.099304,459.526672 
	C580.688538,461.479858 585.512512,465.273315 585.957397,472.625946 
	C586.356018,479.214935 583.268127,484.112488 577.165344,487.492249 
z"/>
<path fill="#000000" opacity="1.000000" stroke="none" 
	d="
M408.713196,283.830261 
	C408.692566,282.042480 408.782318,280.705566 408.670959,279.385590 
	C408.406586,276.252838 409.860809,275.230774 412.835632,275.587677 
	C414.640289,275.804169 416.504425,275.523529 418.309540,275.738098 
	C423.172028,276.316010 426.327972,274.887573 429.287292,270.375610 
	C435.320282,261.177368 448.218506,260.329651 456.392944,267.761200 
	C464.026489,274.701050 464.160980,287.840942 456.671936,295.018738 
	C448.966644,302.403809 435.790924,302.112518 429.881836,293.193878 
	C426.096832,287.481140 421.776733,287.035614 416.148773,287.174866 
	C413.498505,287.240448 409.869720,288.602081 408.713196,283.830261 
M440.868866,287.659882 
	C445.008667,289.487701 448.142822,287.890839 450.053925,284.297363 
	C451.568726,281.449066 451.048096,278.482422 448.342560,276.236145 
	C445.115509,273.556885 441.434143,273.844940 438.633179,277.024384 
	C435.776489,280.267120 436.264954,283.418121 440.868866,287.659882 
z"/>
<path fill="#000000" opacity="1.000000" stroke="none" 
	d="
M522.444092,444.215607 
	C518.496765,444.636902 519.106628,447.376801 519.097229,449.581818 
	C519.048889,460.892090 518.925293,472.206665 519.186157,483.511444 
	C519.292236,488.107880 517.700623,489.507751 513.143616,489.521118 
	C508.574768,489.534515 507.513092,487.793457 507.598846,483.615753 
	C507.820679,472.808685 507.677490,461.993958 507.667419,451.182312 
	C507.660919,444.204956 507.650909,444.205292 500.438599,444.180420 
	C498.442657,444.173523 496.443695,444.090729 494.451416,444.171997 
	C491.177399,444.305511 489.655365,443.070557 489.605957,439.534882 
	C489.555725,435.944031 490.701050,434.716736 494.412720,434.449066 
	C507.396454,433.512726 520.345581,434.758545 533.307983,434.591827 
	C536.234253,434.554199 537.049316,436.206787 536.937561,438.728088 
	C536.826721,441.226440 537.067444,444.016479 533.366638,444.096039 
	C529.875183,444.171112 526.381836,444.160645 522.444092,444.215607 
z"/>
<path fill="#000000" opacity="1.000000" stroke="none" 
	d="
M253.132401,489.361267 
	C249.550323,489.630219 248.635391,488.032745 248.648499,485.154846 
	C248.719070,469.664307 248.796371,454.171997 248.617859,438.683228 
	C248.562744,433.900024 251.812057,434.486786 254.653656,434.190125 
	C257.941101,433.846924 259.452972,435.143372 259.404175,438.733521 
	C259.243378,450.557678 259.535339,462.389954 259.251312,474.209442 
	C259.143066,478.714233 260.724121,480.030548 265.011902,479.828491 
	C271.161224,479.538696 277.336761,479.856567 283.496552,479.715912 
	C287.022308,479.635406 288.152557,481.267059 288.150696,484.565460 
	C288.148865,487.793732 287.248016,489.475647 283.599884,489.416290 
	C273.608429,489.253754 263.612518,489.364655 253.132401,489.361267 
z"/>
<path fill="#000000" opacity="1.000000" stroke="none" 
	d="
M232.252762,446.033569 
	C232.250748,459.004822 232.080444,471.484528 232.338898,483.955322 
	C232.435318,488.608337 230.436493,489.506500 226.357422,489.464447 
	C222.498886,489.424652 220.636581,488.584351 220.701736,484.188843 
	C220.921173,469.387085 220.986160,454.575531 220.666122,439.777313 
	C220.551620,434.482819 223.526611,434.337402 227.238174,434.151947 
	C231.172775,433.955383 232.643707,435.752319 232.285507,439.553009 
	C232.099030,441.531555 232.254013,443.542267 232.252762,446.033569 
z"/>
<path fill="#000000" opacity="1.000000" stroke="none" 
	d="
M194.791931,519.367432 
	C198.662750,516.059998 209.425812,516.423035 212.524124,519.515686 
	C213.491150,520.480957 214.750107,521.922363 214.157745,522.960938 
	C211.011337,528.477356 217.875580,533.519287 214.725677,538.884399 
	C213.551895,540.883545 211.557495,541.791260 209.368011,542.206909 
	C196.704636,544.610840 194.668274,542.960266 194.663223,530.324646 
	C194.661835,526.825012 194.701752,523.325317 194.791931,519.367432 
M211.654770,534.709290 
	C209.524200,529.585144 204.999039,531.765381 201.346375,531.384949 
	C199.666489,531.209961 198.405228,531.994751 198.360535,533.877808 
	C198.318756,535.638306 197.695496,537.612244 199.383316,538.971436 
	C202.127487,541.181213 209.819366,538.942688 211.654770,534.709290 
M202.604675,520.335693 
	C200.529739,520.334167 198.481049,520.442749 198.363434,523.227051 
	C198.296722,524.806396 197.722458,526.957092 199.802658,527.442627 
	C201.990021,527.953247 204.360168,527.773132 206.647736,527.734558 
	C208.662582,527.700684 210.210281,526.733887 210.462631,524.608032 
	C210.726379,522.386230 209.129730,521.333618 207.311020,520.799438 
	C206.074753,520.436340 204.720551,520.474670 202.604675,520.335693 
z"/>
<path fill="#000000" opacity="1.000000" stroke="none" 
	d="
M380.624146,519.415283 
	C383.915558,517.568787 387.055115,516.569458 390.481140,517.059448 
	C396.972565,517.987854 401.625244,522.685730 402.211853,528.801270 
	C402.756073,534.474609 398.996552,540.303833 393.671326,542.043701 
	C387.408356,544.089905 380.517548,541.863037 377.370483,536.775757 
	C374.059631,531.423767 375.208008,524.735535 380.624146,519.415283 
M379.605042,532.646729 
	C380.322174,534.351318 381.290833,535.866638 382.736969,537.065918 
	C386.569061,540.243896 392.475037,539.895386 395.783630,536.270874 
	C399.259583,532.463013 399.075836,526.271118 395.185547,522.942871 
	C392.217133,520.403381 388.757874,519.396790 385.041840,521.290649 
	C380.742737,523.481567 378.723145,526.997559 379.605042,532.646729 
z"/>
<path fill="#000000" opacity="1.000000" stroke="none" 
	d="
M246.268127,517.387207 
	C254.617035,519.942810 258.461792,527.170654 255.739975,534.552917 
	C253.213898,541.404358 245.064529,544.651978 237.865372,541.676208 
	C230.897507,538.796021 228.034103,531.241089 231.252975,524.229858 
	C233.682571,518.937805 238.906830,516.456055 246.268127,517.387207 
M252.095428,533.355652 
	C255.053131,525.635376 247.805435,519.043274 241.318573,520.612061 
	C236.719376,521.724365 234.087418,524.934814 233.753769,529.417908 
	C233.429474,533.775330 235.787689,536.994324 239.958450,538.631226 
	C244.450027,540.394104 248.179214,538.918335 252.095428,533.355652 
z"/>
<path fill="#000000" opacity="1.000000" stroke="none" 
	d="
M272.738007,526.062256 
	C272.760498,523.745850 272.759827,521.917480 272.816956,520.091003 
	C272.855621,518.853638 273.322540,517.929016 274.572113,517.356995 
	C277.671051,515.938477 287.855072,517.445251 290.400238,519.789734 
	C293.250305,522.415039 294.398773,527.878723 291.614502,530.647034 
	C288.140808,534.100769 289.057648,536.480408 291.791840,539.350220 
	C292.352631,539.938843 292.655396,540.761047 292.160736,541.748413 
	C289.426514,543.184143 288.510895,540.782471 287.174164,539.228760 
	C285.904480,537.752991 285.171356,535.560730 282.891174,535.336853 
	C279.557404,535.009644 275.844910,534.343323 276.247284,539.769958 
	C276.308075,540.589783 276.079865,541.425049 274.434845,542.213745 
	C271.052765,537.291809 273.483490,531.665588 272.738007,526.062256 
M287.316071,522.195068 
	C285.191132,520.652466 282.761353,520.333679 280.224518,520.397461 
	C278.497711,520.440979 276.548584,520.519836 276.524353,522.733826 
	C276.493195,525.583801 274.852722,529.286011 277.769318,531.051697 
	C280.410095,532.650452 284.006836,532.230713 286.745117,530.250427 
	C289.493103,528.263245 289.489258,525.555054 287.316071,522.195068 
z"/>
<path fill="#000000" opacity="1.000000" stroke="none" 
	d="
M421.304504,517.116333 
	C424.924042,516.807373 428.071533,516.953674 431.189545,517.622253 
	C437.508087,518.977051 441.016449,525.526917 437.117462,530.466553 
	C433.994293,534.423340 435.017517,536.760559 437.504578,539.791260 
	C437.874054,540.241516 437.912537,540.963379 438.168945,541.761169 
	C434.927185,542.998962 433.887421,540.559998 432.510529,538.864075 
	C431.160889,537.201721 430.135315,535.250061 427.529205,535.175598 
	C424.637329,535.093079 422.058472,535.116272 422.215027,539.121094 
	C422.267487,540.463074 422.013611,541.836975 420.233246,541.929077 
	C418.651184,541.507812 418.712036,540.229492 418.704681,539.105347 
	C418.665344,533.111572 418.682190,527.117493 418.680389,521.123474 
	C418.679901,519.412292 418.708954,517.716003 421.304504,517.116333 
M422.253906,526.496582 
	C421.862274,530.120178 422.960510,532.205078 427.131561,531.707031 
	C430.779572,531.271301 434.424225,530.584106 434.498444,526.126587 
	C434.574432,521.565063 430.698639,520.943054 427.205902,520.407898 
	C423.098816,519.778687 421.948975,522.049438 422.253906,526.496582 
z"/>
<path fill="#000000" opacity="1.000000" stroke="none" 
	d="
M309.488953,541.591675 
	C306.699066,542.656250 305.919891,541.454224 306.834320,539.364319 
	C309.833008,532.510559 312.905731,525.682495 316.213867,518.974609 
	C317.312836,516.746338 319.736145,516.376160 320.924652,518.759155 
	C324.603424,526.135193 327.908112,533.697876 331.291901,541.044495 
	C328.978333,542.790649 327.981079,541.845642 326.999054,540.505493 
	C322.170715,533.915955 313.786774,534.336731 309.488953,541.591675 
M318.607727,524.181458 
	C316.346893,526.292969 315.407623,529.009521 314.633545,532.181458 
	C317.532135,532.738342 320.019562,533.347839 322.476318,531.666321 
	C321.872559,528.821899 320.938751,526.377686 318.607727,524.181458 
z"/>
<path fill="#000000" opacity="1.000000" stroke="none" 
	d="
M169.239929,518.972168 
	C172.820694,526.630737 176.240265,533.960693 180.083023,542.197693 
	C174.001541,542.036438 173.177078,535.260681 166.986115,535.667847 
	C161.277023,536.043335 159.470886,540.374573 156.032333,542.412537 
	C154.409912,541.174377 154.723373,540.175598 155.132919,539.270081 
	C158.014420,532.898865 160.894058,526.526184 163.861206,520.194702 
	C164.959229,517.851685 166.390594,515.956055 169.239929,518.972168 
M168.987106,526.686157 
	C168.354477,525.657593 168.358978,524.019165 166.365250,524.088074 
	C164.840622,526.527039 163.437073,529.052307 162.757767,532.232971 
	C165.636322,532.787842 168.119186,533.316406 170.338242,531.866516 
	C170.883530,529.887817 169.807983,528.675476 168.987106,526.686157 
z"/>
<path fill="#000000" opacity="1.000000" stroke="none" 
	d="
M465.768250,524.710449 
	C468.152191,522.095093 468.320984,517.721130 473.016205,517.354675 
	C473.553650,520.447144 471.368256,522.150879 470.283112,524.203003 
	C467.675110,529.134827 463.513733,533.414062 464.208435,539.664368 
	C464.316345,540.635132 464.010620,541.730286 462.732941,541.901489 
	C461.466766,542.071106 460.730988,541.201721 460.848938,540.152466 
	C461.725311,532.356750 455.929688,527.399048 452.937958,521.255432 
	C452.444031,520.241028 451.439636,519.403992 452.099731,517.289185 
	C458.514557,518.602295 458.153778,526.106567 462.590302,528.892334 
	C464.244904,528.084167 464.592743,526.291931 465.768250,524.710449 
z"/>
<path fill="#000000" opacity="1.000000" stroke="none" 
	d="
M344.265533,517.239868 
	C350.678223,517.309998 356.878510,515.810974 362.777283,518.086792 
	C362.474396,520.170166 361.386444,520.427307 360.441772,520.288818 
	C354.534515,519.422363 354.018219,522.866089 354.265686,527.447510 
	C354.525665,532.260925 354.323883,537.099365 354.323883,542.030212 
	C350.157410,541.702209 350.790100,539.468872 350.749023,537.839233 
	C350.644409,533.687012 350.570435,529.523438 350.765259,525.377563 
	C350.928772,521.897827 350.030518,520.116638 346.062195,520.350647 
	C343.075134,520.526794 343.052582,520.144226 344.265533,517.239868 
z"/>
<path fill="#000000" opacity="1.000000" stroke="none" 
	d="
M125.810745,519.610596 
	C126.172066,518.105713 126.792137,517.343933 127.997902,517.673096 
	C129.495987,518.082031 129.296234,519.447144 129.307953,520.560425 
	C129.355362,525.059387 129.506332,529.567261 129.290009,534.055908 
	C129.112808,537.732300 130.510925,539.054077 134.192795,539.103149 
	C137.033646,539.140930 140.446960,537.641357 143.388458,541.520508 
	C137.642822,542.983459 132.455505,542.681274 127.354904,541.833252 
	C125.365463,541.502441 125.782501,539.137939 125.767860,537.538025 
	C125.714500,531.706055 125.755302,525.873230 125.810745,519.610596 
z"/>
</svg>